<?xml version="1.0" encoding="iso-8859-1"?>
<!-- Generator: Adobe Illustrator 17.1.0, SVG Export Plug-In . SVG Version: 6.00 Build 0)  -->
<!DOCTYPE svg PUBLIC "-//W3C//DTD SVG 1.1//EN" "http://www.w3.org/Graphics/SVG/1.1/DTD/svg11.dtd">
<svg version="1.1" id="Capa_1" xmlns="http://www.w3.org/2000/svg" xmlns:xlink="http://www.w3.org/1999/xlink" x="0px" y="0px"
	 width="25px" height="25px" fill="#fff" viewBox="0 0 200 200" style="enable-background:new 0 0 200 200;" xml:space="preserve">
<g>
	<path d="M184.839,77.673c-1.907-6.36-4.635-12.465-8.109-18.144l-12.796,7.828c2.801,4.579,5,9.499,6.537,14.624L184.839,77.673z"
		/>
	<path d="M176.101,141.481l-12.675-8.022c-2.866,4.528-6.31,8.682-10.235,12.347l10.236,10.965
		C168.287,152.233,172.551,147.089,176.101,141.481z"/>
	<path d="M186.673,114.876l-14.726-2.858c-1.021,5.26-2.721,10.374-5.053,15.2l13.506,6.526
		C183.295,127.754,185.406,121.406,186.673,114.876z"/>
	<path d="M133.717,158.188l5.574,13.926c6.159-2.466,11.993-5.724,17.34-9.686l-8.93-12.053
		C143.388,153.572,138.682,156.2,133.717,158.188z"/>
	<path d="M188.098,100.001c0-4.603-0.406-9.218-1.208-13.715l-14.767,2.634c0.647,3.63,0.976,7.358,0.975,11.081
		c0,1.649-0.064,3.312-0.192,4.942l14.954,1.169C188.018,104.094,188.098,102.038,188.098,100.001z"/>
	<path d="M126.954,160.455c-5.148,1.402-10.49,2.139-15.879,2.192l0.146,14.999c6.67-0.065,13.289-0.979,19.674-2.718
		L126.954,160.455z"/>
	<path d="M38.401,119.477c1.049,1.283,2.748,1.283,3.797,0L64.8,91.823c1.049-1.283,0.555-2.323-1.102-2.323H48.697
		c0.119-0.702,0.234-1.405,0.376-2.099c0.002-0.009,0.004-0.019,0.006-0.028c0.185-0.905,0.398-1.802,0.622-2.697
		c3.054-12.1,9.634-22.812,18.583-30.971c0.052-0.047,0.105-0.094,0.157-0.142c0.543-0.492,1.095-0.974,1.655-1.447
		c1.68-1.418,3.435-2.75,5.259-3.988c0.042-0.028,0.083-0.058,0.125-0.086c9.127-6.163,19.957-9.984,31.622-10.601
		c0.153-0.008,0.306-0.011,0.459-0.018c0.808-0.036,1.618-0.056,2.429-0.062c0.235-0.002,0.47-0.007,0.705-0.006
		c0.839,0.003,1.675,0.025,2.508,0.06c0.297,0.013,0.592,0.031,0.888,0.048c0.653,0.037,1.304,0.085,1.955,0.142
		c0.252,0.022,0.505,0.04,0.757,0.065c0.838,0.084,1.672,0.187,2.502,0.304c0.264,0.037,0.527,0.079,0.79,0.12
		c2.698,0.415,5.353,1.004,7.953,1.761c0.393,0.115,0.784,0.238,1.174,0.36c0.412,0.129,0.822,0.263,1.231,0.401
		c0.678,0.228,1.35,0.469,2.019,0.72c0.382,0.143,0.765,0.284,1.144,0.435c0.483,0.192,0.962,0.395,1.44,0.599
		c0.27,0.115,0.539,0.234,0.807,0.353c0.97,0.431,1.93,0.886,2.878,1.366c0.108,0.055,0.218,0.106,0.326,0.162
		c0.472,0.243,0.939,0.496,1.405,0.751c0.27,0.148,0.538,0.298,0.805,0.45c0.43,0.243,0.86,0.486,1.284,0.74l0.001-0.002
		c2.165,1.297,4.254,2.737,6.265,4.302c0.782,0.608,1.55,1.236,2.306,1.883c0.208,0.178,0.42,0.35,0.626,0.531
		c0.78,0.685,1.543,1.394,2.294,2.121c2.082,2.017,4.029,4.172,5.815,6.46l11.824-9.229c-2.103-2.694-4.384-5.244-6.818-7.637
		c-0.019-0.02-0.036-0.041-0.056-0.06c-0.093-0.091-0.191-0.175-0.284-0.266c-0.698-0.678-1.408-1.339-2.127-1.988
		c-0.212-0.191-0.423-0.384-0.637-0.573c-0.786-0.694-1.584-1.37-2.393-2.029c-0.291-0.236-0.588-0.465-0.882-0.697
		c-0.304-0.24-0.603-0.485-0.911-0.72l-0.01,0.013c-2.354-1.804-4.8-3.456-7.322-4.967l0.008-0.014
		c-0.58-0.347-1.168-0.681-1.756-1.013c-0.236-0.133-0.472-0.266-0.709-0.396c-1.989-1.094-4.021-2.096-6.094-3.008
		c-0.183-0.081-0.366-0.161-0.55-0.24c-2.024-0.872-4.084-1.656-6.178-2.35c-0.346-0.115-0.692-0.229-1.039-0.339
		c-0.597-0.189-1.196-0.376-1.798-0.551c-0.035-0.01-0.07-0.022-0.105-0.032l-0.001,0.003c-2.829-0.815-5.711-1.462-8.635-1.951
		l0.003-0.017c-0.297-0.05-0.598-0.089-0.896-0.136c-0.381-0.059-0.761-0.119-1.144-0.173c-1.003-0.141-2.009-0.265-3.021-0.367
		c-0.327-0.033-0.655-0.056-0.983-0.085c-0.8-0.07-1.603-0.129-2.408-0.175c-0.357-0.02-0.713-0.043-1.071-0.059
		c-1.045-0.045-2.093-0.072-3.145-0.076c-0.095,0-0.189-0.007-0.284-0.007c-0.178,0-0.352,0.012-0.53,0.013
		c-1.028,0.007-2.052,0.031-3.07,0.078c-0.181,0.008-0.362,0.012-0.543,0.022c-0.915,0.048-1.829,0.108-2.738,0.188l0.002,0.021
		c-2.968,0.262-5.893,0.672-8.756,1.26l-0.001-0.005c-1.217,0.249-2.424,0.537-3.627,0.844c-0.073,0.019-0.147,0.037-0.221,0.056
		c-5.157,1.333-10.172,3.19-14.951,5.558l0.017,0.035c-2.649,1.316-5.209,2.782-7.677,4.381l-0.028-0.044
		c-5.572,3.604-10.673,7.917-15.162,12.821l0.031,0.029c-1.99,2.173-3.848,4.466-5.584,6.854l-0.042-0.03
		c-3.911,5.389-7.114,11.258-9.519,17.445l0.036,0.014c-1.067,2.737-1.996,5.541-2.751,8.418l-0.015-0.004
		c-0.335,1.28-0.627,2.572-0.896,3.869c-0.023,0.11-0.047,0.219-0.069,0.329c-0.237,1.167-0.448,2.343-0.632,3.528
		c-0.025,0.162-0.046,0.326-0.07,0.488c-0.048,0.327-0.097,0.653-0.142,0.981H16.901c-1.657,0-2.15,1.04-1.102,2.323L38.401,119.477
		z"/>
</g>
</svg>
