<?xml version="1.0" encoding="iso-8859-1"?>
<!-- Generator: Adobe Illustrator 17.1.0, SVG Export Plug-In . SVG Version: 6.00 Build 0)  -->
<!DOCTYPE svg PUBLIC "-//W3C//DTD SVG 1.1//EN" "http://www.w3.org/Graphics/SVG/1.1/DTD/svg11.dtd">
<svg version="1.1" id="Capa_1" xmlns="http://www.w3.org/2000/svg" xmlns:xlink="http://www.w3.org/1999/xlink" x="0px" y="0px" width="25px" height="25px" fill="#000"
	 viewBox="0 0 200 200"  style="enable-background:new 0 0 200 200;" xml:space="preserve">
<g>
	<path d="M184.773,89.5h-13.628c-1.657,0-3.175-1.331-3.461-2.963c-6.395-36.419-38.235-64.186-76.458-64.186
		c-42.816,0-77.649,34.833-77.649,77.649s34.833,77.649,77.649,77.649c4.142,0,7.5-3.358,7.5-7.5s-3.358-7.5-7.5-7.5
		c-34.545,0-62.649-28.104-62.649-62.649S56.68,37.351,91.225,37.351c29.929,0,55.008,21.101,61.179,49.204
		c0.355,1.618-0.771,2.945-2.427,2.945h-12.001c-1.657,0-2.15,1.04-1.102,2.323l22.602,27.654c1.049,1.283,2.748,1.283,3.797,0
		l22.602-27.654C186.923,90.54,186.429,89.5,184.773,89.5z"/>
</g>
</svg>
