<?xml version="1.0" encoding="iso-8859-1"?>
<!-- Generator: Adobe Illustrator 17.1.0, SVG Export Plug-In . SVG Version: 6.00 Build 0)  -->
<!DOCTYPE svg PUBLIC "-//W3C//DTD SVG 1.1//EN" "http://www.w3.org/Graphics/SVG/1.1/DTD/svg11.dtd">
<svg version="1.1" id="Capa_1" xmlns="http://www.w3.org/2000/svg" xmlns:xlink="http://www.w3.org/1999/xlink" x="0px" y="0px" width="25px" height="25px" 
	 viewBox="0 0 100 100" style="enable-background:new 0 0 100 100;" xml:space="preserve">
<g>
	<path style="fill:#fff;" d="M90.41,11.914H24.99c-3.517,0-6.378,2.861-6.378,6.378s2.861,6.378,6.378,6.378h65.42
		c3.517,0,6.378-2.861,6.378-6.378S93.927,11.914,90.41,11.914z"/>
	<path style="fill:#fff;" d="M90.41,34.222H24.99c-3.517,0-6.378,2.861-6.378,6.378s2.861,6.378,6.378,6.378h65.42
		c3.517,0,6.378-2.861,6.378-6.378S93.927,34.222,90.41,34.222z"/>
	<path style="fill:#fff;" d="M90.41,55.549H24.99c-3.517,0-6.378,2.861-6.378,6.378s2.861,6.378,6.378,6.378h65.42
		c3.517,0,6.378-2.861,6.378-6.378S93.927,55.549,90.41,55.549z"/>
	<path style="fill:#fff;" d="M90.41,77.331H24.99c-3.517,0-6.378,2.861-6.378,6.378s2.861,6.378,6.378,6.378h65.42
		c3.517,0,6.378-2.861,6.378-6.378S93.927,77.331,90.41,77.331z"/>
	<path style="fill:#fff;" d="M9.59,24.669c3.517,0,6.377-2.861,6.377-6.378s-2.861-6.378-6.377-6.378s-6.378,2.861-6.378,6.378
		S6.073,24.669,9.59,24.669z"/>
	<path style="fill:#fff;" d="M9.59,46.978c3.517,0,6.377-2.861,6.377-6.378s-2.861-6.378-6.377-6.378S3.212,37.083,3.212,40.6
		S6.073,46.978,9.59,46.978z"/>
	<path style="fill:#fff;" d="M9.59,68.305c3.517,0,6.377-2.861,6.377-6.378s-2.861-6.378-6.377-6.378s-6.378,2.861-6.378,6.378
		S6.073,68.305,9.59,68.305z"/>
	<path style="fill:#fff;" d="M9.59,90.086c3.517,0,6.377-2.861,6.377-6.378s-2.861-6.378-6.377-6.378s-6.378,2.861-6.378,6.378
		S6.073,90.086,9.59,90.086z"/>
</g>
</svg>
