<?xml version="1.0" encoding="utf-8"?>
<!-- Generator: Adobe Illustrator 16.0.0, SVG Export Plug-In . SVG Version: 6.00 Build 0)  -->
<!DOCTYPE svg PUBLIC "-//W3C//DTD SVG 1.1//EN" "http://www.w3.org/Graphics/SVG/1.1/DTD/svg11.dtd">
<svg version="1.1" id="Layer_1" xmlns="http://www.w3.org/2000/svg" xmlns:xlink="http://www.w3.org/1999/xlink" x="0px" y="0px"
	 width="30px" height="30px" viewBox="0 0 100 100" enable-background="new 0 0 100 100" xml:space="preserve">
<g>
	<path d="M51.027,82.704c-0.779,0-1.521-0.299-2.086-0.842c-0.041-0.039-4.903-4.741-24.542-24.38l-0.137-0.137
		c-0.202-0.2-0.301-0.315-0.4-0.431c-3.207-3.467-4.987-7.976-4.987-12.668c0-10.275,8.36-18.635,18.635-18.635
		c5.043,0,9.833,2.03,13.311,5.605c3.479-3.575,8.27-5.605,13.313-5.605c10.275,0,18.635,8.36,18.635,18.635
		c0,5.149-2.063,9.939-5.811,13.497c-0.055,0.064-0.105,0.115-0.142,0.151c-19.797,19.797-23.552,23.812-23.588,23.85
		c-0.551,0.589-1.324,0.938-2.124,0.958L51.027,82.704z M37.511,27.612c-9.173,0-16.635,7.462-16.635,16.635
		c0,4.187,1.592,8.214,4.482,11.34c0.098,0.113,0.168,0.195,0.316,0.342l0.14,0.14c19.633,19.633,24.47,24.31,24.513,24.352
		c0.189,0.182,0.435,0.282,0.693,0.284l0.042-0.001c0.261-0.007,0.521-0.124,0.705-0.321c0.029-0.032,3.815-4.079,23.632-23.896
		l0.144-0.155c3.371-3.179,5.228-7.471,5.228-12.084c0-9.173-7.462-16.635-16.635-16.635c-4.837,0-9.413,2.091-12.555,5.738
		l-0.758,0.879l-0.758-0.88C46.924,29.703,42.349,27.612,37.511,27.612z"/>
</g>
</svg>
