<?xml version="1.0" encoding="utf-8"?>
<!-- Generator: Adobe Illustrator 16.0.0, SVG Export Plug-In . SVG Version: 6.00 Build 0)  -->
<!DOCTYPE svg PUBLIC "-//W3C//DTD SVG 1.1//EN" "http://www.w3.org/Graphics/SVG/1.1/DTD/svg11.dtd">
<svg version="1.1" id="Layer_10" xmlns="http://www.w3.org/2000/svg" xmlns:xlink="http://www.w3.org/1999/xlink" x="0px" y="0px"
	 width="25px" height="25px" fill="#fff799" viewBox="0 0 100 100" enable-background="new 0 0 100 100" xml:space="preserve">
<path d="M80.257,82.056L63.206,55.378c-1.326-2.074-3.731-3.04-6.013-2.635l-3.936-6.158c8.346-6.677,10.491-18.749,4.608-27.954
	c-6.294-9.849-19.428-12.74-29.276-6.445c-9.849,6.295-12.74,19.427-6.445,29.276c5.916,9.256,17.87,12.362,27.462,7.479
	l3.892,6.089c-1.427,1.913-1.609,4.581-0.247,6.711l17.051,26.678c1.757,2.749,5.41,3.553,8.159,1.796
	C81.209,88.458,82.014,84.805,80.257,82.056z M49.736,45.271c-8.396,5.366-19.591,2.901-24.957-5.494
	c-5.366-8.396-2.901-19.591,5.494-24.957c8.396-5.366,19.591-2.901,24.957,5.495C60.595,28.71,58.131,39.906,49.736,45.271z"/>
</svg>
