<?xml version="1.0" encoding="iso-8859-1"?>
<!-- Generator: Adobe Illustrator 18.0.0, SVG Export Plug-In . SVG Version: 6.00 Build 0)  -->
<!DOCTYPE svg PUBLIC "-//W3C//DTD SVG 1.1//EN" "http://www.w3.org/Graphics/SVG/1.1/DTD/svg11.dtd">
<svg version="1.1" id="Capa_1" xmlns="http://www.w3.org/2000/svg" xmlns:xlink="http://www.w3.org/1999/xlink" x="0px" y="0px" width="20px" height="20px"
	 viewBox="0 0 53.203 60.517" fill="#333" style="enable-background:new 0 0 53.203 60.517;" xml:space="preserve">
<g>
	<path d="M42.146,60.517c-6.098,0-11.059-4.96-11.059-11.057c0-0.438,0.027-0.882,0.08-1.324l-14.01-8.653
		c-1.81,1.201-3.904,1.833-6.099,1.833C4.961,41.315,0,36.354,0,30.257C0,24.16,4.961,19.2,11.06,19.2
		c2.195,0,4.289,0.632,6.099,1.833l14.011-8.652c-0.054-0.443-0.081-0.887-0.081-1.324C31.088,4.96,36.049,0,42.146,0
		c6.097,0,11.057,4.96,11.057,11.057c0,6.098-4.96,11.059-11.057,11.059c-2.193,0-4.288-0.632-6.099-1.834l-14.01,8.653
		c0.053,0.442,0.079,0.885,0.079,1.322c0,0.438-0.026,0.882-0.079,1.324l14.01,8.653c1.809-1.201,3.903-1.833,6.099-1.833
		c6.097,0,11.057,4.961,11.057,11.059C53.203,55.557,48.243,60.517,42.146,60.517z M17.12,37.284c0.182,0,0.364,0.05,0.525,0.149
		l15.136,9.348c0.351,0.216,0.532,0.625,0.458,1.03c-0.101,0.551-0.151,1.105-0.151,1.648c0,4.994,4.064,9.057,9.059,9.057
		c4.994,0,9.057-4.062,9.057-9.057c0-4.995-4.062-9.059-9.057-9.059c-1.989,0-3.876,0.633-5.457,1.829
		c-0.328,0.249-0.777,0.27-1.129,0.053l-15.135-9.348c-0.35-0.216-0.532-0.624-0.459-1.029c0.1-0.549,0.15-1.104,0.15-1.649
		c0-0.543-0.051-1.098-0.15-1.649c-0.073-0.404,0.109-0.812,0.459-1.028l15.135-9.348c0.35-0.217,0.8-0.195,1.129,0.053
		c1.583,1.197,3.47,1.83,5.457,1.83c4.994,0,9.057-4.063,9.057-9.059C51.203,6.062,47.141,2,42.146,2
		c-4.995,0-9.059,4.062-9.059,9.057c0,0.543,0.051,1.097,0.151,1.648c0.074,0.405-0.107,0.814-0.458,1.03l-15.136,9.348
		c-0.35,0.217-0.8,0.195-1.129-0.053c-1.581-1.197-3.469-1.83-5.457-1.83C6.064,21.2,2,25.263,2,30.257
		c0,4.995,4.064,9.059,9.06,9.059c1.988,0,3.875-0.633,5.457-1.829C16.694,37.353,16.907,37.284,17.12,37.284z"/>
</g>
<g>
</g>
<g>
</g>
<g>
</g>
<g>
</g>
<g>
</g>
<g>
</g>
<g>
</g>
<g>
</g>
<g>
</g>
<g>
</g>
<g>
</g>
<g>
</g>
<g>
</g>
<g>
</g>
<g>
</g>
</svg>
