<?xml version="1.0" encoding="utf-8"?>
<!-- Generator: Adobe Illustrator 15.0.0, SVG Export Plug-In . SVG Version: 6.00 Build 0)  -->
<!DOCTYPE svg PUBLIC "-//W3C//DTD SVG 1.1//EN" "http://www.w3.org/Graphics/SVG/1.1/DTD/svg11.dtd">
<svg version="1.1" id="Layer_1" xmlns="http://www.w3.org/2000/svg" xmlns:xlink="http://www.w3.org/1999/xlink" x="0px" y="0px"
	 width="25px" height="25px" viewBox="0 0 64 64" enable-background="new 0 0 64 64" xml:space="preserve">
<g>
	<g>
		<path fill="#fff" d="M42.819,16.491h-2.491c0.277-0.322,0.45-0.735,0.45-1.191c0-0.761-0.465-1.414-1.124-1.691
			c0.944-0.073,1.694-0.859,1.694-1.824c0-1.011-0.822-1.834-1.835-1.834c-1.012,0-1.835,0.824-1.835,1.834
			c0,0.761,0.464,1.416,1.124,1.695c-0.945,0.072-1.694,0.856-1.694,1.82c0,0.456,0.172,0.869,0.449,1.191h-9.051
			c-0.149-0.864-0.898-1.525-1.802-1.525c-0.905,0-1.656,0.661-1.804,1.525h-3.718c-1.842,0-3.339,1.498-3.339,3.339v38.164
			c0,1.841,1.497,3.34,3.339,3.34h21.637c1.841,0,3.338-1.499,3.338-3.34V19.83C46.157,17.989,44.66,16.491,42.819,16.491z
			 M38.342,11.785c0-0.644,0.525-1.167,1.172-1.167c0.646,0,1.171,0.523,1.171,1.167c0,0.647-0.525,1.172-1.171,1.172
			C38.867,12.958,38.342,12.433,38.342,11.785z M38.942,14.132c0.645,0,1.171,0.523,1.171,1.168c0,0.646-0.526,1.171-1.171,1.171
			s-1.171-0.526-1.171-1.171C37.771,14.655,38.298,14.132,38.942,14.132z M32,20.695c1.989,0,3.603,1.613,3.603,3.603
			S33.989,27.9,32,27.9s-3.603-1.613-3.603-3.603S30.011,20.695,32,20.695z M28.206,18.638c0.644,0,1.169,0.526,1.169,1.172
			c0,0.644-0.525,1.169-1.169,1.169c-0.645,0-1.17-0.525-1.17-1.169C27.036,19.164,27.561,18.638,28.206,18.638z M25.596,16.491
			c0.14-0.491,0.574-0.858,1.108-0.858c0.534,0,0.966,0.368,1.105,0.858h-0.007v0.666c-0.152,0.47-0.58,0.816-1.099,0.816
			c-0.521,0-0.948-0.346-1.099-0.816h-0.009V16.491z M43.321,59.405H20.679V53.67h22.642V59.405z"/>
	</g>
	<g>
		<path fill="#fff" d="M23.366,13.291c0,1.011,0.823,1.833,1.835,1.833c1.012,0,1.834-0.823,1.834-1.833
			c0-0.93-0.695-1.693-1.591-1.813c0.896-0.122,1.591-0.882,1.591-1.813c0-0.452-0.169-0.859-0.441-1.179
			c0.037,0.001,0.072,0.01,0.109,0.01c1.01,0,1.834-0.823,1.834-1.833c0-0.038-0.009-0.073-0.012-0.11
			c0.321,0.272,0.729,0.442,1.182,0.442c1.012,0,1.834-0.825,1.834-1.838c0-1.011-0.823-1.833-1.834-1.833s-1.836,0.823-1.836,1.833
			c0,0.039,0.01,0.073,0.01,0.11c-0.319-0.273-0.726-0.442-1.179-0.442c-1.013,0-1.836,0.825-1.836,1.838
			c0,0.45,0.168,0.859,0.441,1.178c-0.037-0.002-0.071-0.012-0.108-0.012c-1.013,0-1.835,0.824-1.835,1.836
			c0,0.93,0.694,1.691,1.593,1.813C24.061,11.597,23.366,12.36,23.366,13.291z M29.708,3.991c0.645,0,1.17,0.522,1.17,1.167
			c0,0.646-0.525,1.172-1.17,1.172c-0.646,0-1.17-0.526-1.17-1.172C28.539,4.514,29.063,3.991,29.708,3.991z M26.704,5.491
			c0.645,0,1.168,0.526,1.168,1.172c0,0.644-0.523,1.167-1.168,1.167c-0.646,0-1.172-0.522-1.172-1.167
			C25.532,6.017,26.059,5.491,26.704,5.491z M24.031,9.666c0-0.644,0.525-1.169,1.171-1.169c0.644,0,1.169,0.525,1.169,1.169
			c0,0.646-0.525,1.171-1.169,1.171C24.556,10.836,24.031,10.312,24.031,9.666z M25.202,12.119c0.644,0,1.169,0.526,1.169,1.172
			c0,0.644-0.525,1.168-1.169,1.168c-0.646,0-1.171-0.524-1.171-1.168C24.031,12.645,24.556,12.119,25.202,12.119z"/>
	</g>
	<g>
		<path fill="#fff" d="M33.502,6.338c0.453,0,0.862-0.17,1.183-0.442c-0.002,0.037-0.012,0.071-0.012,0.109
			c0,1.012,0.823,1.834,1.835,1.834c0.234,0,0.457-0.048,0.663-0.128c-0.036,0.146-0.063,0.296-0.063,0.454
			c0,1.011,0.821,1.833,1.834,1.833s1.836-0.823,1.836-1.833c0-1.012-0.823-1.834-1.836-1.834c-0.234,0-0.458,0.048-0.663,0.13
			c0.035-0.147,0.063-0.297,0.063-0.455c0-1.012-0.822-1.837-1.834-1.837c-0.451,0-0.86,0.171-1.181,0.442
			c0.003-0.037,0.012-0.071,0.012-0.109c0-1.012-0.822-1.834-1.837-1.834c-1.012,0-1.834,0.823-1.834,1.834
			C31.667,5.514,32.49,6.338,33.502,6.338z M38.942,6.996c0.645,0,1.171,0.525,1.171,1.168c0,0.644-0.526,1.169-1.171,1.169
			s-1.171-0.525-1.171-1.169C37.771,7.521,38.298,6.996,38.942,6.996z M36.508,4.833c0.646,0,1.171,0.526,1.171,1.171
			s-0.524,1.168-1.171,1.168c-0.645,0-1.169-0.523-1.169-1.168S35.863,4.833,36.508,4.833z M33.502,3.332
			c0.646,0,1.171,0.524,1.171,1.169s-0.524,1.171-1.171,1.171c-0.644,0-1.169-0.526-1.169-1.171S32.858,3.332,33.502,3.332z"/>
	</g>
</g>
</svg>
