<?xml version="1.0" encoding="iso-8859-1"?>
<!-- Generator: Adobe Illustrator 17.1.0, SVG Export Plug-In . SVG Version: 6.00 Build 0)  -->
<!DOCTYPE svg PUBLIC "-//W3C//DTD SVG 1.1//EN" "http://www.w3.org/Graphics/SVG/1.1/DTD/svg11.dtd">
<svg version="1.1" id="Capa_1" xmlns="http://www.w3.org/2000/svg" xmlns:xlink="http://www.w3.org/1999/xlink" x="0px" y="0px"
	 viewBox="0 0 100 100" width="20px" height="20px" fill="#fff799" style="enable-background:new 0 0 100 100;" xml:space="preserve">
<g>
	<path d="M92.312,23.016c-0.438,0.128-0.876,0.247-1.314,0.358c-2.677,0.676-2.923-0.216-0.985-2.184
		c0.868-0.882,1.635-1.841,2.301-2.877c1.493-2.323,0.198-3.336-2.342-2.251c-0.906,0.387-1.827,0.738-2.761,1.051
		c-2.617,0.879-6.331-0.447-8.663-1.926c-2.944-1.867-6.29-2.8-10.039-2.8c-5.251,0-9.727,1.852-13.43,5.553
		c-3.702,3.703-5.554,8.18-5.554,13.43c0,0.718,0.041,1.447,0.122,2.186c0.133,1.203-1.893,2.075-4.627,1.689
		c-5.914-0.835-11.533-2.627-16.858-5.374c-5.281-2.724-9.942-6.152-13.982-10.284c-1.931-1.975-4.543-1.805-5.264,0.861
		c-0.432,1.598-0.647,3.26-0.647,4.986c0,3.253,0.764,6.27,2.292,9.051c0.76,1.384,1.65,2.637,2.672,3.758
		c1.719,1.887,1.456,2.982-0.937,2.311c-2.392-0.671-4.145-1.667-4.145-1.602c0,0.065,0,0.118,0,0.118
		c0,4.583,1.439,8.61,4.319,12.077c1.774,2.136,3.835,3.786,6.182,4.948c2.475,1.226,3.628,1.91,2.244,2.089
		c-0.835,0.108-1.675,0.162-2.52,0.162c-0.572,0-1.172-0.026-1.798-0.079c-0.99-0.084-1.168,1.979,0.333,4.297
		c1.193,1.842,2.72,3.463,4.58,4.863c1.892,1.425,3.931,2.448,6.114,3.071c2.656,0.757,3.189,2.136,0.821,3.556
		c-5.86,3.516-12.345,5.274-19.454,5.274c-0.801,0-1.565-0.018-2.295-0.053c-1.267-0.061-0.417,1.055,2.029,2.336
		c7.643,4.003,15.92,6.003,24.832,6.003c6.738,0,13.066-1.067,18.983-3.202c5.915-2.135,10.97-4.996,15.162-8.581
		c4.192-3.585,7.807-7.708,10.844-12.371c3.036-4.663,5.298-9.531,6.788-14.604c1.488-5.074,2.233-10.158,2.233-15.252
		c0-0.459-0.004-0.871-0.011-1.234c-0.014-0.682,1.79-2.528,3.804-4.417c0.909-0.853,1.776-1.748,2.604-2.687
		C95.772,23.193,94.963,22.243,92.312,23.016z"/>
</g>
</svg>
