<?xml version="1.0" encoding="utf-8"?>
<!-- Generator: Adobe Illustrator 16.0.0, SVG Export Plug-In . SVG Version: 6.00 Build 0)  -->
<!DOCTYPE svg PUBLIC "-//W3C//DTD SVG 1.1//EN" "http://www.w3.org/Graphics/SVG/1.1/DTD/svg11.dtd">
<svg version="1.1" id="Layer_1" xmlns="http://www.w3.org/2000/svg" xmlns:xlink="http://www.w3.org/1999/xlink" x="0px" y="0px"
	 width="100px" height="100px" viewBox="0 0 100 100" fill="#fff799" enable-background="new 0 0 100 100" xml:space="preserve">
<g>
	<path d="M30.586,80.874c7.197,0,13.1-5.598,13.615-12.667h10.77c0.516,7.069,6.418,12.667,13.615,12.667
		c7.536,0,13.668-6.131,13.668-13.667c0-0.571-0.046-1.13-0.114-1.682c0.099-0.202,0.144-0.433,0.087-0.669l-6.836-28.5
		c-0.129-0.536-0.667-0.865-1.206-0.739c-0.537,0.129-0.868,0.669-0.739,1.206l5.032,20.979c-2.492-2.619-6-4.262-9.892-4.262
		c-7.197,0-13.1,5.598-13.615,12.667h-10.77c-0.516-7.069-6.418-12.667-13.615-12.667c-4.211,0-7.979,1.916-10.489,4.919
		l3.807-21.697c0.095-0.544-0.269-1.063-0.813-1.158c-0.543-0.097-1.062,0.268-1.158,0.812l-5,28.5
		c-0.037,0.215,0.013,0.418,0.102,0.6c-0.069,0.555-0.116,1.117-0.116,1.69C16.918,74.743,23.05,80.874,30.586,80.874z
		 M68.586,55.54c6.434,0,11.668,5.234,11.668,11.667S75.02,78.874,68.586,78.874c-6.433,0-11.666-5.234-11.666-11.667
		S62.153,55.54,68.586,55.54z M30.586,55.54c6.433,0,11.666,5.234,11.666,11.667s-5.233,11.667-11.666,11.667
		c-6.434,0-11.668-5.234-11.668-11.667S24.152,55.54,30.586,55.54z"/>
	<path d="M68.586,59.561c4.216,0,7.646,3.43,7.646,7.646c0,0.552,0.447,1,1,1s1-0.448,1-1c0-5.318-4.327-9.646-9.646-9.646
		c-0.553,0-1,0.448-1,1S68.033,59.561,68.586,59.561z"/>
	<path d="M30.586,59.561c4.215,0,7.645,3.43,7.645,7.646c0,0.552,0.447,1,1,1s1-0.448,1-1c0-5.318-4.326-9.646-9.645-9.646
		c-0.553,0-1,0.448-1,1S30.033,59.561,30.586,59.561z"/>
</g>
</svg>
