<?xml version="1.0" encoding="iso-8859-1"?>
<!-- Generator: Adobe Illustrator 16.0.0, SVG Export Plug-In . SVG Version: 6.00 Build 0)  -->
<!DOCTYPE svg PUBLIC "-//W3C//DTD SVG 1.1//EN" "http://www.w3.org/Graphics/SVG/1.1/DTD/svg11.dtd">
<svg version="1.1" id="Capa_1" xmlns="http://www.w3.org/2000/svg" xmlns:xlink="http://www.w3.org/1999/xlink" x="0px" y="0px"
	 width="20px" height="20x" fill="#fff799" viewBox="0 0 531.08 531.08" style="enable-background:new 0 0 531.08 531.08;"
	 xml:space="preserve">
<g>
	<path d="M106.828,142.004l33.184-53.333h0.068c9.52-14.892,26.112-24.82,45.084-24.82c19.02,0,35.666,9.955,45.159,24.888h70.441
		c9.493-14.933,26.133-24.888,45.159-24.888c18.972,0,35.564,9.928,45.084,24.82h0.068l33.136,53.258
		c-10.58-3.658-21.821-5.59-33.34-5.59c-35.211,0-67.674,18.149-86.17,47.757h-78.322c-18.496-29.607-50.959-47.757-86.169-47.757
		C128.663,136.339,117.416,138.325,106.828,142.004z M531.08,347.82c0,65.959-53.448,119.406-119.34,119.406
		c-42.059,0-78.873-21.84-100.09-54.738c-10.546,13.973-27.247,23.051-46.11,23.051s-35.564-9.078-46.111-23.051
		c-21.209,32.898-58.031,54.74-100.089,54.74C53.448,467.229,0,413.779,0,347.82c0-23.732,7.004-45.766,18.972-64.328l-0.136-0.068
		l63.805-102.544c15.096-15.252,35.652-24.14,57.569-24.14c29.791,0,57.126,16.259,71.345,42.425l2.904,5.332h102.157l2.903-5.332
		c14.219-26.166,41.562-42.425,71.353-42.425c21.685,0,42.105,8.534,57.263,23.637l64.11,103.047l-0.136,0.068
		C524.076,302.055,531.08,324.088,531.08,347.82z M193.664,347.82c0-41.004-33.252-74.256-74.324-74.256
		c-41.072,0-74.324,33.252-74.324,74.256c0,41.07,33.252,74.322,74.324,74.322C160.412,422.143,193.664,388.891,193.664,347.82z
		 M292.74,377.74c0-15.021-12.179-27.201-27.2-27.201c-15.021,0-27.2,12.18-27.2,27.201s12.179,27.199,27.2,27.199
		C280.562,404.939,292.74,392.762,292.74,377.74z M486.064,347.82c0-41.004-33.252-74.256-74.324-74.256
		s-74.324,33.252-74.324,74.256c0,41.07,33.252,74.322,74.324,74.322S486.064,388.891,486.064,347.82z"/>
</g>
<g>
</g>
<g>
</g>
<g>
</g>
<g>
</g>
<g>
</g>
<g>
</g>
<g>
</g>
<g>
</g>
<g>
</g>
<g>
</g>
<g>
</g>
<g>
</g>
<g>
</g>
<g>
</g>
<g>
</g>
</svg>
